<?xml version="1.0" encoding="utf-8" ?>
<svg baseProfile="tiny" height="200px" version="1.2" width="500px" xmlns="http://www.w3.org/2000/svg" xmlns:ev="http://www.w3.org/2001/xml-events" xmlns:xlink="http://www.w3.org/1999/xlink"><defs /><path d="M 605,273 604,274 601,274 600,275 599,275 598,276 597,276 596,277 595,277 593,279 592,279 589,282 589,283 588,284 588,285 587,286 587,291 588,292 588,293 589,294 589,295 595,301 595,302 594,303 592,303 591,304 589,304 588,305 587,305 586,306 585,306 584,307 583,307 581,309 580,309 578,311 577,311 574,314 573,314 572,315 572,318 573,319 574,319 575,320 583,320 584,319 587,319 588,318 590,318 591,317 592,317 593,316 594,316 595,315 596,315 597,314 598,314 609,303 610,303 611,302 612,302 613,301 614,301 615,300 616,300 617,299 619,299 620,298 622,298 623,297 625,297 626,296 627,296 628,295 630,295 631,294 633,294 634,293 634,289 627,289 626,290 625,290 623,292 622,292 621,293 620,293 619,294 618,294 617,295 615,295 614,296 613,296 612,297 610,297 609,298 608,298 607,299 605,299 604,300 594,290 594,287 602,279 603,279 604,278 606,278 608,280 608,284 607,285 607,286 605,288 605,290 608,290 609,289 610,289 614,285 614,284 615,283 615,277 614,276 614,275 613,274 611,274 610,273" fill="none" stroke="black" stroke-dasharray="1000" stroke-dashoffset="1000" stroke-width="2"><animate attributeName="stroke-dashoffset" begin="0s" dur="3s" fill="freeze" from="1000" repeatCount="1" to="0" /></path><path d="M 566,222 565,223 564,223 560,227 559,227 554,232 554,233 548,239 548,240 545,243 545,244 542,247 542,248 540,250 540,251 537,254 537,255 535,257 535,258 532,261 532,262 530,264 530,265 524,271 523,271 522,272 522,275 523,276 523,277 522,278 522,279 520,281 520,282 519,283 519,284 518,285 518,286 515,289 514,289 512,291 511,291 510,292 509,292 508,293 506,293 505,294 503,294 502,295 499,295 498,296 492,296 491,297 484,297 483,296 481,296 478,293 480,291 488,291 489,290 491,290 492,289 493,289 494,288 496,288 497,287 498,287 500,285 500,281 499,280 499,279 498,279 497,278 489,278 488,279 485,279 484,280 482,280 481,281 479,281 477,283 476,283 476,284 474,286 474,288 473,289 473,297 476,300 477,300 478,301 481,301 482,302 491,302 492,301 499,301 500,300 503,300 504,299 507,299 508,298 510,298 511,297 512,298 512,299 511,300 511,302 510,303 510,304 509,305 509,308 508,309 508,311 507,312 507,316 506,317 506,320 507,321 507,324 508,325 508,326 509,327 516,327 517,326 519,326 520,325 521,325 524,322 525,322 547,300 547,299 551,295 551,294 552,293 552,291 553,290 552,289 552,288 551,288 550,289 548,289 537,300 537,301 528,310 528,311 519,320 518,320 517,321 514,321 513,320 513,315 514,314 514,311 515,310 515,308 516,307 516,305 517,304 517,303 518,302 518,300 519,299 519,298 521,296 521,295 522,294 522,293 523,292 523,291 524,290 524,289 525,288 525,287 526,286 526,285 527,284 527,283 529,281 529,280 530,279 530,278 532,276 532,275 549,258 550,258 561,247 561,246 566,241 566,240 569,237 569,236 571,234 571,233 572,232 572,231 573,230 573,228 574,227 574,225 573,224 573,223 572,222" fill="none" stroke="black" stroke-dasharray="1000" stroke-dashoffset="1000" stroke-width="2"><animate attributeName="stroke-dashoffset" begin="0s" dur="3s" fill="freeze" from="1000" repeatCount="1" to="0" /></path><path d="M 585,221 584,222 583,222 583,223 582,224 582,225 581,226 581,227 580,228 580,229 579,230 579,231 578,232 578,234 577,235 577,236 578,237 578,238 579,239 581,239 582,238 582,237 583,236 583,235 584,234 584,233 585,232 585,231 586,230 586,229 587,228 587,227 588,226 588,222 587,221" fill="none" stroke="black" stroke-dasharray="1000" stroke-dashoffset="1000" stroke-width="2"><animate attributeName="stroke-dashoffset" begin="0s" dur="3s" fill="freeze" from="1000" repeatCount="1" to="0" /></path><path d="M 390,206 385,211 385,212 383,214 383,215 381,217 381,218 377,222 376,222 375,223 344,223 343,224 334,224 333,225 327,225 326,226 323,226 322,227 319,227 318,228 315,228 314,229 311,229 308,232 308,236 309,237 312,237 313,236 317,236 318,235 322,235 323,234 327,234 328,233 333,233 334,232 340,232 341,231 349,231 350,230 358,230 359,229 372,229 373,230 373,231 371,233 371,234 370,235 370,236 368,238 368,239 366,241 366,242 364,244 364,245 362,247 362,248 361,249 361,250 359,252 359,253 357,255 357,256 355,258 355,259 353,261 353,262 352,263 352,264 350,266 350,267 348,269 348,270 346,272 346,273 344,275 344,276 342,278 342,279 341,280 341,281 339,283 339,284 337,286 337,287 335,289 335,290 333,292 333,293 332,294 332,295 330,297 330,298 328,300 328,301 326,303 326,304 324,306 324,307 322,309 322,310 321,311 321,312 319,314 319,315 317,317 317,318 315,320 315,321 313,323 313,324 311,326 311,327 310,328 310,329 308,331 308,332 304,336 303,336 302,337 301,337 300,338 299,338 298,339 296,339 295,340 294,340 293,341 291,341 290,342 288,342 287,343 285,343 284,344 281,344 280,345 278,345 277,346 275,346 274,347 271,347 270,348 268,348 267,349 265,349 264,350 261,350 260,351 258,351 257,352 255,352 254,353 252,353 251,354 250,354 249,355 247,355 246,356 245,356 244,357 244,360 246,362 249,362 250,363 253,363 254,362 258,362 259,361 262,361 263,360 265,360 266,359 268,359 269,358 271,358 272,357 274,357 275,356 276,356 277,355 279,355 280,354 281,354 282,353 283,353 284,352 286,352 287,351 288,351 289,350 290,350 291,349 293,349 294,348 295,348 296,347 297,347 298,348 297,349 297,350 296,351 296,352 295,353 295,354 294,355 294,357 293,358 293,359 292,360 292,361 291,362 291,364 290,365 290,367 293,367 298,362 298,361 300,359 300,358 302,356 302,355 304,353 304,352 305,351 305,350 306,349 306,348 313,341 314,341 315,340 317,340 318,339 319,339 320,338 322,338 323,337 325,337 326,336 328,336 329,335 331,335 332,334 333,334 334,333 336,333 337,332 339,332 340,331 342,331 343,330 344,330 345,329 347,329 348,328 350,328 351,327 352,327 353,326 355,326 356,325 358,325 359,324 360,324 361,323 363,323 364,322 365,322 366,321 368,321 369,320 371,320 372,319 373,319 374,318 375,318 376,317 378,317 379,316 380,316 381,315 383,315 384,314 385,314 386,313 387,313 388,312 390,312 391,311 392,311 393,310 394,310 395,309 396,309 397,308 399,308 400,307 401,307 402,306 403,306 404,305 405,305 406,304 407,304 408,303 410,303 411,302 412,302 413,301 414,301 415,300 416,300 417,299 419,299 420,298 421,298 422,297 423,297 425,295 426,295 427,294 428,294 429,293 430,293 431,292 432,292 433,291 434,291 435,290 436,290 438,288 439,288 441,286 442,286 444,284 445,284 448,281 449,281 452,278 453,278 461,270 461,269 463,267 463,266 464,265 464,263 465,262 465,260 466,259 466,253 465,252 465,250 464,249 464,247 461,244 461,243 460,243 456,239 455,239 454,238 453,238 452,237 451,237 450,236 448,236 447,235 446,235 445,234 443,234 442,233 440,233 439,232 437,232 436,231 434,231 433,230 430,230 429,229 426,229 425,228 421,228 420,227 415,227 414,226 409,226 408,225 403,225 402,224 395,224 394,223 388,223 387,222 387,221 388,220 388,219 390,217 390,216 391,215 391,214 393,212 393,206" fill="none" stroke="black" stroke-dasharray="1000" stroke-dashoffset="1000" stroke-width="2"><animate attributeName="stroke-dashoffset" begin="0s" dur="3s" fill="freeze" from="1000" repeatCount="1" to="0" /></path></svg>